<?xml version="1.0" standalone="no"?>
<!DOCTYPE svg PUBLIC "-//W3C//DTD SVG 20010904//EN"
 "http://www.w3.org/TR/2001/REC-SVG-20010904/DTD/svg10.dtd">
<svg version="1.0" xmlns="http://www.w3.org/2000/svg"
 width="670.000000pt" height="670.000000pt" viewBox="0 0 670.000000 670.000000"
 preserveAspectRatio="xMidYMid meet">
<metadata>
Created by potrace 1.14, written by Peter Selinger 2001-2017
</metadata>
<g transform="translate(0.000000,670.000000) scale(0.100000,-0.100000)"
fill="#000000" stroke="none">
<path d="M3436 6383 c-2 -2 -32 -6 -67 -9 -70 -5 -181 -25 -287 -50 -37 -8
-74 -17 -83 -19 -9 -2 -39 -11 -65 -20 -27 -9 -53 -18 -59 -19 -5 -2 -23 -8
-38 -14 -16 -7 -32 -12 -37 -12 -31 0 -426 -187 -458 -217 -7 -7 -20 -13 -28
-13 -8 0 -14 -4 -14 -9 0 -5 -10 -13 -22 -17 -13 -4 -25 -10 -28 -13 -3 -4
-30 -22 -60 -41 -30 -19 -59 -39 -65 -45 -5 -6 -28 -23 -51 -38 -22 -15 -50
-36 -62 -47 -12 -11 -25 -20 -31 -20 -5 0 -11 -4 -13 -8 -1 -4 -32 -32 -67
-61 -204 -168 -420 -402 -591 -637 -27 -38 -53 -73 -57 -79 -32 -41 -188 -298
-213 -350 -8 -16 -20 -37 -28 -47 -7 -9 -15 -22 -16 -30 -1 -7 -18 -45 -38
-84 -39 -75 -125 -277 -153 -359 -9 -27 -21 -59 -26 -70 -9 -21 -66 -208 -74
-241 -2 -10 -9 -37 -15 -59 -6 -22 -13 -51 -16 -64 -2 -12 -12 -53 -20 -90 -9
-36 -17 -75 -19 -86 -1 -11 -8 -49 -13 -85 -49 -294 -60 -702 -26 -935 2 -16
6 -50 9 -75 3 -25 8 -56 11 -70 3 -14 8 -42 10 -64 2 -21 7 -42 10 -47 2 -5 7
-23 9 -41 2 -18 18 -82 35 -143 136 -485 377 -885 704 -1169 33 -28 67 -58 76
-66 9 -8 24 -19 32 -25 8 -5 49 -33 89 -61 41 -28 110 -72 154 -98 44 -26 114
-69 155 -95 323 -207 680 -310 1090 -315 52 -1 124 2 160 5 193 20 190 19 316
45 113 22 358 98 378 116 6 4 15 8 22 8 6 0 29 8 50 17 22 9 41 17 44 18 14 2
216 105 289 147 133 77 340 219 349 240 2 5 8 8 13 8 10 0 55 37 109 90 31 30
64 88 61 105 -1 3 6 21 14 41 18 44 27 134 14 134 -6 0 -7 4 -4 10 8 13 -31
95 -59 122 -36 35 -66 58 -66 52 0 -4 -6 -2 -12 4 -11 8 -35 15 -98 27 -28 5
-50 20 -55 36 -19 59 -127 120 -217 123 -10 0 -18 4 -18 9 0 4 -4 6 -9 3 -5
-3 -26 -8 -47 -12 -22 -3 -43 -9 -49 -12 -5 -4 -14 -7 -20 -8 -74 -14 -81 -17
-207 -116 -242 -188 -501 -321 -778 -399 -36 -10 -77 -20 -92 -23 -282 -51
-544 -36 -766 44 -101 36 -146 67 -238 162 -73 75 -154 171 -154 182 0 3 -8
15 -18 26 -33 40 -110 177 -155 280 -15 36 -32 74 -37 85 -9 19 -47 133 -55
165 -3 8 -14 51 -25 94 -12 44 -23 92 -25 108 -2 15 -6 35 -9 45 -18 62 -40
319 -39 478 0 217 31 526 54 541 4 2 6 11 2 19 -3 8 2 45 11 83 9 37 17 76 19
87 1 11 6 26 10 33 5 6 6 12 3 12 -18 0 138 455 197 575 13 28 42 87 63 133
21 45 42 82 46 82 4 0 8 7 8 15 0 9 11 33 25 55 14 22 25 42 25 45 0 4 11 21
25 39 14 18 25 38 25 44 0 7 5 12 10 12 6 0 10 6 10 13 0 7 7 22 15 32 8 11
44 62 80 113 35 50 69 98 75 105 5 6 31 39 57 72 106 134 286 317 424 430 78
64 120 95 128 95 5 0 11 4 13 8 4 11 188 135 188 127 0 -3 17 6 37 20 21 14
43 25 50 25 7 0 13 5 13 10 0 6 4 10 9 10 6 0 49 18 96 40 47 22 98 43 113 46
15 4 32 10 37 14 6 5 37 16 70 25 233 65 445 90 600 71 28 -3 73 -9 100 -12
116 -13 304 -75 363 -121 20 -15 77 -67 126 -115 48 -48 92 -86 96 -83 4 3 11
-2 14 -10 3 -8 9 -14 13 -13 4 1 26 -2 48 -7 22 -5 43 -9 46 -9 3 -1 34 -29
68 -63 35 -35 69 -63 77 -63 8 0 14 -5 14 -12 0 -6 3 -9 6 -6 3 3 27 0 54 -7
61 -16 125 -13 170 9 94 46 141 207 93 317 -29 64 -154 209 -239 275 -60 47
-212 147 -286 188 -36 20 -72 43 -78 51 -7 8 -16 15 -21 15 -5 0 -36 18 -70
40 -116 75 -374 191 -481 216 -10 2 -26 6 -35 9 -49 14 -254 55 -307 60 -67 7
-414 14 -420 8z"/>
<path d="M5003 4300 c-48 -11 -112 -47 -141 -81 -15 -17 -62 -86 -104 -153
-43 -66 -81 -126 -85 -132 -33 -45 -191 -361 -238 -474 -26 -63 -53 -129 -61
-147 -8 -17 -14 -34 -14 -38 0 -4 -7 -23 -16 -43 -9 -21 -20 -46 -24 -57 -4
-11 -24 -59 -44 -107 -20 -47 -36 -90 -36 -93 0 -4 -6 -21 -14 -38 -7 -18 -23
-57 -34 -87 -68 -183 -79 -210 -167 -405 -80 -176 -98 -218 -100 -225 0 -3 -6
-21 -13 -41 -27 -78 -31 -165 -11 -215 7 -16 12 -32 11 -36 -1 -5 2 -8 8 -8 5
0 10 -5 10 -11 0 -12 40 -46 80 -68 14 -8 53 -14 87 -15 34 -1 61 -3 61 -6 -3
-14 15 -60 23 -60 5 0 9 -6 9 -12 0 -14 76 -71 100 -75 8 -2 25 -4 38 -5 12
-1 22 -6 22 -11 0 -4 5 -5 12 -1 6 4 21 8 32 9 57 5 126 56 157 117 17 34 53
125 95 241 22 59 91 200 119 241 14 20 25 40 25 45 0 4 13 25 30 47 16 21 30
43 30 48 0 4 24 36 52 70 99 116 148 154 134 104 -55 -189 -71 -393 -41 -510
35 -140 123 -224 250 -243 23 -3 43 -13 49 -23 17 -32 96 -102 134 -118 59
-26 175 -23 242 6 48 21 125 65 140 80 3 3 28 23 55 44 62 49 128 116 180 181
21 28 66 78 100 113 33 34 64 72 69 82 5 11 13 20 17 20 9 0 11 14 12 100 1
49 -4 73 -18 95 -26 39 -61 75 -75 75 -5 0 -10 5 -10 10 0 6 -3 9 -7 9 -5 -1
-10 0 -13 1 -19 7 -52 11 -92 12 -43 0 -47 2 -53 28 -8 37 -67 96 -116 118
-43 18 -42 11 -22 117 9 46 6 89 -10 165 -7 33 -41 92 -78 134 -44 50 -101 86
-174 110 -33 10 -70 34 -108 70 -69 65 -166 107 -255 109 -28 1 -26 9 49 162
75 155 131 254 161 285 34 35 59 78 62 104 1 12 6 27 10 34 4 7 2 12 -4 12 -6
0 -8 5 -5 10 16 26 -55 143 -90 150 -15 4 -37 11 -60 19 -20 8 -39 7 -82 -4
-13 -3 -23 -1 -23 4 0 5 -4 20 -9 33 -5 13 -9 27 -9 31 -1 30 -131 111 -149
93 -4 -3 -11 -2 -17 2 -6 5 -25 6 -43 2z"/>
</g>
</svg>
